<mxfile host="app.diagrams.net" modified="2022-02-12T17:42:20.978Z" agent="5.0 (Macintosh; Intel Mac OS X 10_15_7) AppleWebKit/537.36 (KHTML, like Gecko) Chrome/97.0.4692.99 Safari/537.36" etag="HiyZdt5q8kn7SVkxU4iK" version="16.2.4" type="github">
  <diagram id="zHqTybTGPuFE11LbJubl" name="Page-1">
    <mxGraphModel dx="1082" dy="722" grid="1" gridSize="10" guides="1" tooltips="1" connect="1" arrows="1" fold="1" page="1" pageScale="1" pageWidth="850" pageHeight="1100" math="0" shadow="0">
      <root>
        <mxCell id="0" />
        <mxCell id="1" parent="0" />
        <mxCell id="Y76CjFKC1JeMBpxRlfsq-3" value="" style="edgeStyle=orthogonalEdgeStyle;rounded=0;orthogonalLoop=1;jettySize=auto;html=1;" edge="1" parent="1" source="Y76CjFKC1JeMBpxRlfsq-1" target="Y76CjFKC1JeMBpxRlfsq-2">
          <mxGeometry relative="1" as="geometry" />
        </mxCell>
        <mxCell id="Y76CjFKC1JeMBpxRlfsq-1" value="Start" style="ellipse;whiteSpace=wrap;html=1;" vertex="1" parent="1">
          <mxGeometry x="365" y="40" width="120" height="80" as="geometry" />
        </mxCell>
        <mxCell id="Y76CjFKC1JeMBpxRlfsq-5" value="" style="edgeStyle=orthogonalEdgeStyle;rounded=0;orthogonalLoop=1;jettySize=auto;html=1;" edge="1" parent="1" source="Y76CjFKC1JeMBpxRlfsq-2" target="Y76CjFKC1JeMBpxRlfsq-4">
          <mxGeometry relative="1" as="geometry" />
        </mxCell>
        <mxCell id="Y76CjFKC1JeMBpxRlfsq-2" value="Delete | Update record&amp;nbsp;" style="whiteSpace=wrap;html=1;" vertex="1" parent="1">
          <mxGeometry x="365" y="160" width="120" height="60" as="geometry" />
        </mxCell>
        <mxCell id="Y76CjFKC1JeMBpxRlfsq-4" value="End&amp;nbsp;" style="ellipse;whiteSpace=wrap;html=1;" vertex="1" parent="1">
          <mxGeometry x="365" y="280" width="120" height="60" as="geometry" />
        </mxCell>
        <mxCell id="Y76CjFKC1JeMBpxRlfsq-6" value="&lt;h1&gt;Notes&amp;nbsp;&lt;/h1&gt;&lt;div&gt;1. Configurable Data&amp;nbsp;&lt;/div&gt;&lt;div&gt;&lt;ul&gt;&lt;li&gt;Secret (words for numbers for eg. OTP)&lt;/li&gt;&lt;li&gt;Passphrase&amp;nbsp;&amp;nbsp;&amp;nbsp;[Non Configurable]&amp;nbsp;&lt;/li&gt;&lt;li&gt;Ping Duration (3 months min - 1 year max)&amp;nbsp;&lt;/li&gt;&lt;li&gt;Ping Duration for no pong (1 week ) [Non Configurable]&amp;nbsp;&lt;/li&gt;&lt;li&gt;Ping lifecycle duration for no pong (3 months)&amp;nbsp;&lt;/li&gt;&lt;/ul&gt;&lt;div&gt;2. Scheduling will be done here&amp;nbsp;&lt;/div&gt;&lt;/div&gt;&lt;div&gt;&lt;br&gt;&lt;/div&gt;&lt;p&gt;&lt;/p&gt;" style="text;html=1;strokeColor=none;fillColor=none;spacing=5;spacingTop=-20;whiteSpace=wrap;overflow=hidden;rounded=0;" vertex="1" parent="1">
          <mxGeometry x="130" y="460" width="590" height="340" as="geometry" />
        </mxCell>
      </root>
    </mxGraphModel>
  </diagram>
</mxfile>
